<svg width="27" height="28" viewBox="0 0 27 28" fill="none" xmlns="http://www.w3.org/2000/svg">
<path fill-rule="evenodd" clip-rule="evenodd" d="M5.0627 4.5498C4.43612 4.5498 3.83521 4.79871 3.39216 5.24177C2.9491 5.68482 2.7002 6.28573 2.7002 6.9123V21.0873C2.7002 22.3914 3.7586 23.4498 5.0627 23.4498H21.9377C22.5643 23.4498 23.1652 23.2009 23.6082 22.7578C24.0513 22.3148 24.3002 21.7139 24.3002 21.0873V9.6123C24.3002 8.98573 24.0513 8.38482 23.6082 7.94177C23.1652 7.49871 22.5643 7.2498 21.9377 7.2498H15.4091C15.3647 7.24988 15.3208 7.24122 15.2798 7.22431C15.2388 7.2074 15.2015 7.18258 15.1701 7.15125L13.2612 5.24235C12.8184 4.79923 12.2178 4.55012 11.5913 4.5498H5.0627ZM13.5002 11.2998C13.7687 11.2998 14.0263 11.4065 14.2161 11.5964C14.406 11.7862 14.5127 12.0438 14.5127 12.3123V14.3373H16.5377C16.8062 14.3373 17.0638 14.444 17.2536 14.6339C17.4435 14.8237 17.5502 15.0813 17.5502 15.3498C17.5502 15.6183 17.4435 15.8759 17.2536 16.0658C17.0638 16.2556 16.8062 16.3623 16.5377 16.3623H14.5127V18.3873C14.5127 18.6558 14.406 18.9134 14.2161 19.1033C14.0263 19.2931 13.7687 19.3998 13.5002 19.3998C13.2317 19.3998 12.9741 19.2931 12.7843 19.1033C12.5944 18.9134 12.4877 18.6558 12.4877 18.3873V16.3623H10.4627C10.1942 16.3623 9.93663 16.2556 9.74675 16.0658C9.55687 15.8759 9.4502 15.6183 9.4502 15.3498C9.4502 15.0813 9.55687 14.8237 9.74675 14.6339C9.93663 14.444 10.1942 14.3373 10.4627 14.3373H12.4877V12.3123C12.4877 12.0438 12.5944 11.7862 12.7843 11.5964C12.9741 11.4065 13.2317 11.2998 13.5002 11.2998Z" fill="white"/>
</svg>
